<mxfile host="app.diagrams.net" agent="Mozilla/5.0 (Windows NT 10.0; Win64; x64) AppleWebKit/537.36 (KHTML, like Gecko) Chrome/126.0.0.0 Safari/537.36" version="28.0.9">
  <diagram name="Page-1" id="eauzAbiaNVEcmyfSUxjj">
    <mxGraphModel dx="1025" dy="497" grid="1" gridSize="10" guides="1" tooltips="1" connect="1" arrows="1" fold="1" page="1" pageScale="1" pageWidth="850" pageHeight="1100" math="0" shadow="0">
      <root>
        <mxCell id="0" />
        <mxCell id="1" parent="0" />
        <mxCell id="Rx1OcIVWyKrmbc8xmCXK-4" value="Akuisia=sfd nsih fsa&lt;span style=&quot;white-space: pre;&quot;&gt;&#x9;&lt;/span&gt;e" style="swimlane;childLayout=stackLayout;resizeParent=1;resizeParentMax=0;horizontal=0;startSize=20;horizontalStack=0;html=1;" vertex="1" parent="1">
          <mxGeometry x="40" y="40" width="690" height="360" as="geometry" />
        </mxCell>
        <mxCell id="Rx1OcIVWyKrmbc8xmCXK-5" value="Agent DSS 1" style="swimlane;startSize=20;horizontal=0;html=1;" vertex="1" parent="Rx1OcIVWyKrmbc8xmCXK-4">
          <mxGeometry x="20" width="670" height="170" as="geometry" />
        </mxCell>
        <mxCell id="Rx1OcIVWyKrmbc8xmCXK-10" style="edgeStyle=orthogonalEdgeStyle;rounded=0;orthogonalLoop=1;jettySize=auto;html=1;entryX=0;entryY=0.5;entryDx=0;entryDy=0;" edge="1" parent="Rx1OcIVWyKrmbc8xmCXK-5" source="Rx1OcIVWyKrmbc8xmCXK-8" target="Rx1OcIVWyKrmbc8xmCXK-9">
          <mxGeometry relative="1" as="geometry" />
        </mxCell>
        <mxCell id="Rx1OcIVWyKrmbc8xmCXK-8" value="mulai" style="ellipse;whiteSpace=wrap;html=1;aspect=fixed;" vertex="1" parent="Rx1OcIVWyKrmbc8xmCXK-5">
          <mxGeometry x="30" y="55" width="60" height="60" as="geometry" />
        </mxCell>
        <mxCell id="Rx1OcIVWyKrmbc8xmCXK-13" style="edgeStyle=orthogonalEdgeStyle;rounded=0;orthogonalLoop=1;jettySize=auto;html=1;" edge="1" parent="Rx1OcIVWyKrmbc8xmCXK-5" source="Rx1OcIVWyKrmbc8xmCXK-9" target="Rx1OcIVWyKrmbc8xmCXK-12">
          <mxGeometry relative="1" as="geometry" />
        </mxCell>
        <mxCell id="Rx1OcIVWyKrmbc8xmCXK-9" value="Menawarkan QRIS Statis BCA kepada nasabah" style="rounded=0;whiteSpace=wrap;html=1;" vertex="1" parent="Rx1OcIVWyKrmbc8xmCXK-5">
          <mxGeometry x="110" y="47.5" width="120" height="75" as="geometry" />
        </mxCell>
        <mxCell id="Rx1OcIVWyKrmbc8xmCXK-12" value="Menjelaskan RIPLAY Umum QRIS Statis BCA" style="rounded=0;whiteSpace=wrap;html=1;" vertex="1" parent="Rx1OcIVWyKrmbc8xmCXK-5">
          <mxGeometry x="250" y="47.5" width="120" height="75" as="geometry" />
        </mxCell>
        <mxCell id="Rx1OcIVWyKrmbc8xmCXK-6" value="BSA" style="swimlane;startSize=20;horizontal=0;html=1;" vertex="1" parent="Rx1OcIVWyKrmbc8xmCXK-4">
          <mxGeometry x="20" y="170" width="670" height="70" as="geometry" />
        </mxCell>
        <mxCell id="Rx1OcIVWyKrmbc8xmCXK-7" value="Lane 3" style="swimlane;startSize=20;horizontal=0;html=1;" vertex="1" parent="Rx1OcIVWyKrmbc8xmCXK-4">
          <mxGeometry x="20" y="240" width="670" height="120" as="geometry" />
        </mxCell>
      </root>
    </mxGraphModel>
  </diagram>
</mxfile>
